# xmcd
#
# Track frame offsets: 
#        150
#        12795
#        27050
#        38695
#        50430
#        59907
#        70042
#        81590
#        94497
#        112777
#        130552
#        142050
#        158962
#        173965
#        190820
#        209115
#        221872
#        234435
#        248927
#        261177
#        274887
#
# Disc length: 3801 seconds
#
# Revision: 4
# Processed by: cddbd v1.5.2PL0 Copyright (c) Steve Scherf et al.
# Submitted via: ExactAudioCopyFreeDBPlugin 1.0
#
DISCID=3d0ed715
DTITLE=Various Artist - Blues Hangover: Excello Blues Rarities [CD
DTITLE=2)
DYEAR=1995
DGENRE=Blues
TTITLE0=Early Drane - I'm Leaving This Morning
TTITLE1=Early Drane - I Hate To See You Leave
TTITLE2=Early Drane - My New Chevrolet
TTITLE3=Early Drane - Evil Ways Blues
TTITLE4=Early Drane - Find My Little Darlin'
TTITLE5=Early Drane - Look On Yonders Wall
TTITLE6=Early Drane - Nobody Prayin'
TTITLE7=Early Drane - Were You There (When They Crucified My Lord)
TTITLE8=Early Drane - My Little Banty
TTITLE9=Early Drane - Take A Little Walk With Me
TTITLE10=Early Drane - Hillbilly Serenade
TTITLE11=Early Drane - I'm Gonna Scratch Your Back, Pt. 1
TTITLE12=Early Drane - Honey Bee Lonely
TTITLE13=Early Drane - I'm Gonna Scratch Your Back, Pt. 2
TTITLE14=Early Drane - Late In The Evening
TTITLE15=Baby Boy Warren with Sonny Boy Williamson - Not Welcome Anymo
TTITLE15=re
TTITLE16=Baby Boy Warren with Sonny Boy Williamson - Bring My Machine 
TTITLE16=Gun (aka Baby Boy Blues)
TTITLE17=Baby Boy Warren with Sonny Boy Williamson - Chuck-A-Luck
TTITLE18=Baby Boy Warren with Sonny Boy Williamson - Hello Stranger (a
TTITLE18=ka Mattie Mae)
TTITLE19=James Stewart - When I Met You Baby
TTITLE20=James Stewart - She's Got Me
EXTD=
EXTT0=
EXTT1=
EXTT2=
EXTT3=
EXTT4=
EXTT5=
EXTT6=
EXTT7=
EXTT8=
EXTT9=
EXTT10=
EXTT11=
EXTT12=
EXTT13=
EXTT14=
EXTT15=
EXTT16=
EXTT17=
EXTT18=
EXTT19=
EXTT20=
PLAYORDER=
